<svg width="1600" height="900" viewBox="0 0 1600 900" xmlns="http://www.w3.org/2000/svg">
  <defs>
    <linearGradient id="bg" x1="0" y1="0" x2="1600" y2="900">
      <stop stop-color="#fff7ed"/>
      <stop offset="0.5" stop-color="#ffedd5"/>
      <stop offset="1" stop-color="#fffbeb"/>
    </linearGradient>
  </defs>
  <rect width="1600" height="900" fill="url(#bg)"/>

  <g fill="#fb923c" fill-opacity="0.22">
    <circle cx="190" cy="140" r="66"/>
    <circle cx="470" cy="290" r="52"/>
    <circle cx="730" cy="130" r="42"/>
    <circle cx="1040" cy="270" r="62"/>
    <circle cx="1330" cy="140" r="50"/>
    <circle cx="1450" cy="390" r="56"/>
    <circle cx="1160" cy="520" r="44"/>
    <circle cx="880" cy="640" r="60"/>
    <circle cx="560" cy="560" r="46"/>
    <circle cx="300" cy="710" r="64"/>
    <circle cx="80" cy="560" r="50"/>
    <circle cx="1310" cy="720" r="72"/>
  </g>

  <g stroke="#f97316" stroke-opacity="0.2" stroke-width="6" fill="none">
    <path d="M240 180c34 0 56 20 56 44s-22 44-56 44-56-20-56-44 22-44 56-44Z"/>
    <path d="M540 410c42 0 70 26 70 56s-28 56-70 56-70-26-70-56 28-56 70-56Z"/>
    <path d="M990 170c38 0 64 22 64 48s-26 48-64 48-64-22-64-48 26-48 64-48Z"/>
    <path d="M1240 600c40 0 68 24 68 52s-28 52-68 52-68-24-68-52 28-52 68-52Z"/>
  </g>
</svg>
