<svg width="360" height="360" viewBox="0 0 360 360" xmlns="http://www.w3.org/2000/svg">
  <rect width="360" height="360" rx="32" fill="#ffffff"/>
  <rect x="24" y="24" width="312" height="312" rx="20" fill="#f8fafc"/>
  <g fill="#0f172a">
    <rect x="44" y="44" width="88" height="88" rx="8"/>
    <rect x="56" y="56" width="64" height="64" rx="6" fill="#fff"/>
    <rect x="68" y="68" width="40" height="40" rx="4"/>

    <rect x="228" y="44" width="88" height="88" rx="8"/>
    <rect x="240" y="56" width="64" height="64" rx="6" fill="#fff"/>
    <rect x="252" y="68" width="40" height="40" rx="4"/>

    <rect x="44" y="228" width="88" height="88" rx="8"/>
    <rect x="56" y="240" width="64" height="64" rx="6" fill="#fff"/>
    <rect x="68" y="252" width="40" height="40" rx="4"/>

    <rect x="164" y="164" width="16" height="16"/>
    <rect x="184" y="164" width="16" height="16"/>
    <rect x="204" y="164" width="16" height="16"/>
    <rect x="224" y="164" width="16" height="16"/>

    <rect x="164" y="186" width="16" height="16"/>
    <rect x="204" y="186" width="16" height="16"/>
    <rect x="244" y="186" width="16" height="16"/>

    <rect x="164" y="208" width="16" height="16"/>
    <rect x="184" y="208" width="16" height="16"/>
    <rect x="224" y="208" width="16" height="16"/>
    <rect x="244" y="208" width="16" height="16"/>

    <rect x="164" y="230" width="16" height="16"/>
    <rect x="204" y="230" width="16" height="16"/>
    <rect x="224" y="230" width="16" height="16"/>

    <rect x="164" y="252" width="16" height="16"/>
    <rect x="184" y="252" width="16" height="16"/>
    <rect x="204" y="252" width="16" height="16"/>
    <rect x="244" y="252" width="16" height="16"/>
    <rect x="264" y="252" width="16" height="16"/>

    <rect x="164" y="274" width="16" height="16"/>
    <rect x="204" y="274" width="16" height="16"/>
    <rect x="224" y="274" width="16" height="16"/>
    <rect x="264" y="274" width="16" height="16"/>
  </g>
</svg>
